<?xml version="1.0" encoding="utf-8"?>
<!-- Generator: Adobe Illustrator 21.0.0, SVG Export Plug-In . SVG Version: 6.00 Build 0)  -->
<svg version="1.1" id="Layer_1" xmlns="http://www.w3.org/2000/svg" xmlns:xlink="http://www.w3.org/1999/xlink" x="0px" y="0px"
	 viewBox="95 215 600 195" xml:space="preserve">
<style type="text/css">
	.st0{fill:#010101;}
	.st1{fill:#39B54A;}
</style>
<g>
	<g>
		<path class="st0" d="M103.9,354.4l0.4-93c17,6.8,35.3,23,35.3,42.8C139.6,326.8,126.9,348.5,103.9,354.4z"/>
		<path class="st0" d="M181.9,350.4c-2.8,2.8-8.6,2.7-12.4,2.7c-16.3,0-26.7-9.5-26.7-26.2c0-15.1,9.5-28.2,25.4-28.2
			c2.2,0,5.3,0.9,7.1,1.9l0.5-4.7l17.5-0.1V352C193.3,352,181.7,350.7,181.9,350.4z M168,318.7c-4.2,0-7.8,3.3-7.8,7.6
			c0,4.3,3.7,7.7,7.8,7.7c4.2,0,7.8-3.4,7.8-7.7C175.8,322,172.2,318.7,168,318.7z"/>
		<path class="st0" d="M227.7,303.1l-0.8,49.6l-17.2-0.3l0.6-49.1l-10.8-1.1v-19.7h11l-0.5-11.3l18,1l-0.6,10.3h9.7l0.4,20.3
			L227.7,303.1z"/>
		<path class="st0" d="M277.6,350.4c-2.8,2.8-8.6,2.7-12.4,2.7c-16.3,0-26.7-9.5-26.7-26.2c0-15.1,9.5-28.2,25.4-28.2
			c2.2,0,5.3,0.9,7.1,1.9l0.5-4.7l17.5-0.1V352C289,352,277.4,350.7,277.6,350.4z M263.7,318.7c-4.2,0-7.8,3.3-7.8,7.6
			c0,4.3,3.7,7.7,7.8,7.7c4.2,0,7.8-3.4,7.8-7.7C271.5,322,267.9,318.7,263.7,318.7z"/>
		<path class="st1" d="M383.9,353.1l-15.2-3l0.1-54.3l18.4,1.1L383.9,353.1z M378.3,290.6c-4.4,0-8.1-3.5-8.1-8.1c0-4.4,3.7-8,8.1-8
			c4.4,0,8.2,3.5,8.2,8C386.5,287.1,382.7,290.6,378.3,290.6z"/>
		<path class="st1" d="M428.7,353.1l-9.7-0.4l-1.8-19.7l-11.4-0.5l-1.9,19.7l-8.1-0.4v-55.8l11.8-5.1l1,3.9c4.7,0,16,0.8,18.2,5.2
			c2.8,5.1,3.2,20.4,3.2,26.5C430,335.4,429.4,344.3,428.7,353.1z"/>
		<path class="st1" d="M463.4,352.4c-15.7,0-25.4-10.8-25.4-26.2c0-15.1,10.9-30.5,27-30.5c15.4,0,27.7,11.1,27.7,27
			C492.6,338.1,479.1,352.4,463.4,352.4z"/>
		<path class="st1" d="M516.3,353.4c-5.6,0-11.5-0.3-17-1.6v-13.4l12.4-0.6v-3.8c-8.7-8.2-12.5-10.5-12.5-23.3
			c0-14.3,11.5-18.5,23.8-18.5c4.9,0,9.9,0.5,14.6,1.6v15.4l-11.6,1c10,7.2,13.7,12.2,13.7,24.9
			C539.6,349.2,528.4,353.4,516.3,353.4z"/>
		<path class="st1" d="M584,350.4c-2.8,2.8-8.6,2.7-12.4,2.7c-16.3,0-26.7-9.5-26.7-26.2c0-15.1,9.5-28.2,25.4-28.2
			c2.2,0,5.3,0.9,7.1,1.9l0.5-4.7l17.5-0.1V352C595.4,352,583.8,350.7,584,350.4z M570.1,318.7c-4.2,0-7.8,3.3-7.8,7.6
			c0,4.3,3.7,7.7,7.8,7.7c4.2,0,7.8-3.4,7.8-7.7C577.9,322,574.3,318.7,570.1,318.7z"/>
		<path class="st1" d="M625.4,353c-19.6,0-21.4-16-21.4-31.5c0-8.5,0.6-17.1,0.3-25.6l39.5-2.2c1,9.4,2.7,19.4,2.7,29
			C646.4,336.3,642,353,625.4,353z"/>
		<path class="st1" d="M668.4,353.1l-14.1-3l-1.1-57.3l16.6,1L668.4,353.1z M679.8,309.7c-3.9,0-7.3-3.3-7.3-7.3
			c0-3.9,3.4-7.2,7.3-7.2c3.7,0,8.2,1.8,8.2,6.1C688.1,305.3,684,309.7,679.8,309.7z"/>
		<path class="st1" d="M314.8,231.6l-19.6-9.4c-5.8-3.2-12-4.5-17.9,0.4c-10.7,8.8-20.7,18.4-29.7,28.8c-4.5,5.3-7.6,11-8.2,18
			c-0.5,4.8,1,8.6,4.4,11.9c3.5,3.3,7.6,5.5,12.1,7.3c0.5,0.1,21.6-21.4,21.6-21.4s-0.2,23.1,0,23.4c2,2.7,6.1,2.8,8.1,0.2
			c0.5-0.7,1-1.5,1.4-2.3c4-7.4,7.1-15.3,10.3-23.1c0.9-2.3,1.9-4.7,2.9-7.3c4.9,1.7,9.6,3.3,14.6,4.9l0,6.6
			c-3.1,1.4-6.2,2.8-9.2,4.1c-2.3,1-4.8,2.5-6.2,4.4c-2.9,3.6-1.7,8.2,2,11.2c0,0-1.5-8,2.8-9.2c3.7-1,5.3,1.7,5.1,3.5
			c2-0.9,2.8-2.4,2-4.3c-0.4-1.1-0.9-2-1.4-3.1c1.2-0.6,3-1.4,4.9-2.1l-0.3,80.5c30.2-7.9,47.1-36.4,47.1-66.3
			C361.5,262,337.2,240.6,314.8,231.6z M274.5,242.5c-1,1.7-3.3,2.2-5,1.1c-1.7-1-2.3-3.2-1.3-4.9c1-1.7,3.3-2.2,5-1.1
			C274.9,238.6,275.4,240.9,274.5,242.5z"/>
		<g>
			<path d="M678.8,351.5c0,0.7-0.6,0.9-0.8,0.9s-0.8-0.2-0.8-0.9v-3.6h-0.8c-0.5,0-0.7-0.3-0.7-0.6c0-0.3,0.2-0.6,0.7-0.6h3.3
				c0.5,0,0.6,0.3,0.6,0.6c0,0.3-0.2,0.6-0.6,0.6h-0.9V351.5z M685.4,351.7c-0.2,0.5-0.4,0.7-0.8,0.7c-0.4,0-0.6-0.2-0.8-0.7l-1-2.7
				h0v2.5c0,0.7-0.6,0.9-0.8,0.9s-0.8-0.2-0.8-0.9v-3.7c0-1,0.7-1.2,1.1-1.2c0.7,0,1.2,0.3,1.4,1l0.9,2.3l0.9-2.3
				c0.3-0.7,0.7-1,1.4-1c0.5,0,1.1,0.2,1.1,1.2v3.7c0,0.7-0.6,0.9-0.8,0.9s-0.8-0.2-0.8-0.9V349h0L685.4,351.7z"/>
		</g>
	</g>
	<g>
		<path d="M161,382.9h-2.5c-1.5,0-2.4-0.8-2.4-2.1c0-1.3,0.8-2.1,2.4-2.1h9.6c1.5,0,2.4,0.8,2.4,2.1c0,1.3-0.8,2.1-2.4,2.1h-2.5
			v13.5c0,1.6-1,2.4-2.3,2.4s-2.3-0.8-2.3-2.4V382.9z"/>
		<path d="M175,382.4c0.8-2.2,1.5-4.1,3.8-4.1c2.3,0,3,1.9,3.8,4.1l4.4,11.8c0.6,1.6,0.7,2.1,0.7,2.8c0,1.1-0.9,1.8-2.2,1.8
			c-1.5,0-2-1-2.4-2.2l-0.6-1.8h-7.4l-0.6,1.8c-0.4,1.3-0.9,2.2-2.4,2.2c-1.3,0-2.2-0.7-2.2-1.8c0-0.7,0.1-1.2,0.7-2.8L175,382.4z
			 M178.9,383.3L178.9,383.3l-2.5,7.3h4.8L178.9,383.3z"/>
		<path d="M191.5,381c0-1.6,1-2.4,2.3-2.4s2.3,0.8,2.3,2.4v5.5l6.2-6.8c0.9-1,1.5-1.1,2.1-1.1c1,0,2.3,1,2.3,2.2
			c0,0.7-0.4,1.3-0.9,1.8l-5.4,5.4l5.9,6.4c0.7,0.8,1.3,1.3,1.3,2.2c0,1.5-1.1,2.2-2.4,2.2c-1.2,0-2.1-1.1-2.8-1.9l-6.3-7.1v6.6
			c0,1.6-1,2.4-2.3,2.4s-2.3-0.8-2.3-2.4V381z"/>
		<path d="M215.5,396.4c0,1.6-1,2.4-2.3,2.4s-2.3-0.8-2.3-2.4V381c0-1.6,1-2.4,2.3-2.4s2.3,0.8,2.3,2.4V396.4z"/>
		<path d="M220.5,381c0-1.6,1-2.4,2.3-2.4c1.2,0,1.6,0.5,3.1,2.4l7.5,9.4h0.1V381c0-1.6,1-2.4,2.3-2.4s2.3,0.8,2.3,2.4v15.5
			c0,1.6-1,2.4-2.3,2.4c-1.2,0-1.7-0.5-3.1-2.4L225,387H225v9.5c0,1.6-1,2.4-2.3,2.4s-2.3-0.8-2.3-2.4V381z"/>
		<path d="M258.9,386.9c1.6,0,2.4,0.9,2.4,2.8c0,5.3-3.5,9.5-9.1,9.5c-6.3,0-9.8-4.7-9.8-10.4c0-6,4.2-10.4,9.8-10.4
			c3.8,0,7.7,1.6,7.7,4.4c0,1.1-0.8,1.9-2,1.9c-1.7,0-2.4-2.1-5.5-2.1c-3.2,0-5.1,2.7-5.1,6.2c0,3.1,1.5,6.2,5,6.2
			c2.4,0,4-1.5,4.3-3.9H254c-1.4,0-2.3-0.8-2.3-2.1c0-1.3,0.8-2.1,2.3-2.1H258.9z"/>
		<path d="M276.6,381c0-1.5,1.1-2.3,2.3-2.3h5.3c3.4,0,5.6,2.1,5.6,5.2c0,2-1.4,3.2-2.4,3.8c2.4,0.5,4,2.4,4,4.9c0,3.2-2,6-6.9,6
			h-5.6c-1.2,0-2.3-0.8-2.3-2.3V381z M281.1,386.5h2.1c1.3,0,2.1-0.6,2.1-1.9c0-1.2-0.8-1.9-2.1-1.9h-2.1V386.5z M281.1,394.6h2.9
			c1.5,0,2.7-0.5,2.7-2s-1.4-2-2.7-2h-2.9V394.6z"/>
		<path d="M300.1,389.3l-3.9-5.3c-1.4-2-1.9-2.5-1.9-3.5c0-1.2,1.1-2,2.4-2c1.2,0,1.8,0.9,2.3,1.5l3.4,4.8l3.4-4.8
			c0.5-0.7,1.1-1.5,2.3-1.5c1.3,0,2.4,0.8,2.4,2c0,0.9-0.4,1.5-1.9,3.5l-3.9,5.3v7.1c0,1.6-1,2.4-2.3,2.4c-1.3,0-2.3-0.8-2.3-2.4
			V389.3z"/>
		<path d="M317,382.9h-2.5c-1.5,0-2.4-0.8-2.4-2.1c0-1.3,0.8-2.1,2.4-2.1h9.6c1.5,0,2.4,0.8,2.4,2.1c0,1.3-0.8,2.1-2.4,2.1h-2.5
			v13.5c0,1.6-1,2.4-2.3,2.4s-2.3-0.8-2.3-2.4V382.9z"/>
		<path d="M329.6,381c0-1.5,1.1-2.3,2.3-2.3h6.9c1.4,0,2.3,0.8,2.3,2.1c0,1.3-0.8,2.1-2.3,2.1h-4.7v3.6h4.3c1.4,0,2.3,0.8,2.3,2.1
			c0,1.3-0.8,2.1-2.3,2.1h-4.3v3.7h4.8c1.4,0,2.3,0.8,2.3,2.1c0,1.3-0.8,2.1-2.3,2.1h-7.1c-1.2,0-2.3-0.8-2.3-2.3V381z"/>
		<path d="M346.6,393.4c1.1,0,2.6,1.1,4.9,1.1c1.8,0,2.4-0.9,2.4-1.9c0-1.5-1.7-1.8-4.3-2.7c-2.4-0.8-4.8-1.8-4.8-5.4
			c0-4.3,3.4-6.4,7.2-6.4c3.6,0,5.7,1.3,5.7,3c0,1.2-0.8,2.1-2,2.1c-1.5,0-1.9-0.8-3.9-0.8c-1.2,0-2.1,0.6-2.1,1.6
			c0,1.1,1.1,1.3,4.3,2.3c2.5,0.8,4.8,2.1,4.8,5.9c0,4.6-3.4,6.7-7.6,6.7c-2.7,0-6.7-1-6.7-3.3C344.4,394.6,345.2,393.4,346.6,393.4
			z"/>
		<path d="M392.9,388.7c0,6.3-3.9,10.4-9.8,10.4s-9.8-4.1-9.8-10.4s3.9-10.4,9.8-10.4S392.9,382.4,392.9,388.7z M378.2,388.7
			c0,3.2,1.4,6.2,4.9,6.2s4.9-3.1,4.9-6.2s-1.4-6.2-4.9-6.2S378.2,385.5,378.2,388.7z"/>
		<path d="M401.8,390.7c0,2.7,1.8,4.1,4.1,4.1s4.1-1.4,4.1-4.1V381c0-1.6,1-2.4,2.3-2.4s2.3,0.8,2.3,2.4v9.7c0,5.3-3.6,8.5-8.7,8.5
			s-8.6-3.2-8.6-8.5V381c0-1.6,1-2.4,2.3-2.4c1.3,0,2.3,0.8,2.3,2.4V390.7z"/>
		<path d="M422.5,382.9H420c-1.5,0-2.4-0.8-2.4-2.1c0-1.3,0.8-2.1,2.4-2.1h9.6c1.5,0,2.4,0.8,2.4,2.1c0,1.3-0.8,2.1-2.4,2.1H427
			v13.5c0,1.6-1,2.4-2.3,2.4c-1.3,0-2.3-0.8-2.3-2.4V382.9z"/>
		<path d="M464.8,388.7c0,6.3-3.9,10.4-9.8,10.4s-9.8-4.1-9.8-10.4s3.9-10.4,9.8-10.4S464.8,382.4,464.8,388.7z M450.1,388.7
			c0,3.2,1.4,6.2,4.9,6.2s4.9-3.1,4.9-6.2s-1.4-6.2-4.9-6.2S450.1,385.5,450.1,388.7z"/>
		<path d="M469.3,381c0-1.5,1.1-2.3,2.3-2.3h6.9c1.4,0,2.3,0.8,2.3,2.1c0,1.3-0.8,2.1-2.3,2.1h-4.7v3.6h4.1c1.4,0,2.3,0.8,2.3,2.1
			s-0.8,2.1-2.3,2.1h-4.1v5.7c0,1.6-1,2.4-2.3,2.4c-1.3,0-2.3-0.8-2.3-2.4V381z"/>
		<path d="M495.1,381c0-1.5,1.1-2.3,2.3-2.3h5.3c3.4,0,5.6,2.1,5.6,5.2c0,2-1.4,3.2-2.4,3.8c2.4,0.5,4,2.4,4,4.9c0,3.2-2,6-6.9,6
			h-5.6c-1.2,0-2.3-0.8-2.3-2.3V381z M499.7,386.5h2.1c1.3,0,2.1-0.6,2.1-1.9c0-1.2-0.8-1.9-2.1-1.9h-2.1V386.5z M499.7,394.6h2.9
			c1.5,0,2.7-0.5,2.7-2s-1.4-2-2.7-2h-2.9V394.6z"/>
		<path d="M519.1,396.4c0,1.6-1,2.4-2.3,2.4c-1.3,0-2.3-0.8-2.3-2.4V381c0-1.6,1-2.4,2.3-2.4c1.3,0,2.3,0.8,2.3,2.4V396.4z"/>
		<path d="M540,386.9c1.6,0,2.4,0.9,2.4,2.8c0,5.3-3.5,9.5-9.1,9.5c-6.3,0-9.8-4.7-9.8-10.4c0-6,4.2-10.4,9.8-10.4
			c3.8,0,7.7,1.6,7.7,4.4c0,1.1-0.8,1.9-2,1.9c-1.7,0-2.4-2.1-5.5-2.1c-3.2,0-5.1,2.7-5.1,6.2c0,3.1,1.5,6.2,5,6.2
			c2.4,0,4-1.5,4.3-3.9h-2.6c-1.4,0-2.3-0.8-2.3-2.1c0-1.3,0.8-2.1,2.3-2.1H540z"/>
		<path d="M557.7,381c0-1.5,1.1-2.3,2.3-2.3h5.4c5.9,0,9.3,4.7,9.3,9.8c0,6.5-4.4,10.1-9.3,10.1h-5.4c-1.2,0-2.3-0.8-2.3-2.3V381z
			 M562.2,394.5h2.4c3.5,0,5.2-2.4,5.2-5.9c0-3.4-1.7-5.6-5-5.6h-2.6V394.5z"/>
		<path d="M583,382.4c0.8-2.2,1.5-4.1,3.8-4.1c2.3,0,3,1.9,3.8,4.1l4.4,11.8c0.6,1.6,0.7,2.1,0.7,2.8c0,1.1-0.9,1.8-2.2,1.8
			c-1.5,0-2-1-2.4-2.2l-0.6-1.8h-7.4l-0.6,1.8c-0.4,1.3-0.9,2.2-2.4,2.2c-1.3,0-2.2-0.7-2.2-1.8c0-0.7,0.1-1.2,0.7-2.8L583,382.4z
			 M587,383.3L587,383.3l-2.5,7.3h4.8L587,383.3z"/>
		<path d="M600.1,382.9h-2.5c-1.5,0-2.4-0.8-2.4-2.1c0-1.3,0.8-2.1,2.4-2.1h9.6c1.5,0,2.4,0.8,2.4,2.1c0,1.3-0.8,2.1-2.4,2.1h-2.5
			v13.5c0,1.6-1,2.4-2.3,2.4c-1.3,0-2.3-0.8-2.3-2.4V382.9z"/>
		<path d="M614.1,382.4c0.8-2.2,1.5-4.1,3.8-4.1c2.3,0,3,1.9,3.8,4.1l4.4,11.8c0.6,1.6,0.7,2.1,0.7,2.8c0,1.1-0.9,1.8-2.2,1.8
			c-1.5,0-2-1-2.4-2.2l-0.6-1.8h-7.4l-0.6,1.8c-0.4,1.3-0.9,2.2-2.4,2.2c-1.3,0-2.2-0.7-2.2-1.8c0-0.7,0.1-1.2,0.7-2.8L614.1,382.4z
			 M618.1,383.3L618.1,383.3l-2.5,7.3h4.8L618.1,383.3z"/>
		<path d="M633.5,394.2c1.3,0,2.4,1.1,2.4,2.4c0,1.3-1.1,2.4-2.4,2.4c-1.3,0-2.4-1.1-2.4-2.4C631,395.4,632.1,394.2,633.5,394.2z"/>
	</g>
</g>
</svg>
